<svg width="57" height="54" viewBox="0 0 57 54" fill="none" xmlns="http://www.w3.org/2000/svg">
<path d="M49.67 1.19601C49.6502 0.951061 49.5391 0.722492 49.3587 0.555611C49.1782 0.38873 48.9417 0.295718 48.696 0.295013H8.62898C8.38356 0.295947 8.14742 0.38893 7.96726 0.555579C7.78709 0.722228 7.67601 0.950411 7.65598 1.19501L4.29598 41.85C4.28452 41.9842 4.30129 42.1193 4.3452 42.2467C4.38911 42.374 4.45919 42.4908 4.55094 42.5894C4.64268 42.688 4.75406 42.7663 4.87789 42.8193C5.00173 42.8723 5.13529 42.8988 5.26998 42.897H52.225C52.785 42.897 53.248 42.41 53.199 41.85L49.669 1.19601H49.67ZM27.736 38.32C20.726 38.32 15.03 31.455 15.03 23.056C15.0318 22.8436 15.117 22.6404 15.2672 22.4902C15.4174 22.34 15.6206 22.2548 15.833 22.253C16.0456 22.2546 16.249 22.3397 16.3994 22.4899C16.5498 22.6401 16.6351 22.8434 16.637 23.056C16.637 30.603 21.627 36.737 27.761 36.737C33.895 36.737 38.885 30.603 38.885 23.057C38.8865 22.8444 38.9716 22.641 39.1218 22.4906C39.2721 22.3402 39.4754 22.2548 39.688 22.253C39.9004 22.2548 40.1036 22.34 40.2538 22.4902C40.404 22.6404 40.4892 22.8436 40.491 23.056C40.443 31.455 34.747 38.32 27.736 38.32V38.32ZM44.313 22.57C44.2403 22.645 44.1532 22.7046 44.057 22.7454C43.9608 22.7861 43.8574 22.8071 43.753 22.8071C43.6485 22.8071 43.5451 22.7861 43.4489 22.7454C43.3527 22.7046 43.2657 22.645 43.193 22.57L39.688 19.064L36.134 22.618C35.9846 22.7668 35.7847 22.8539 35.574 22.862C35.4686 22.8635 35.3642 22.8426 35.2676 22.8005C35.1711 22.7584 35.0846 22.6962 35.014 22.618C34.939 22.5453 34.8794 22.4583 34.8386 22.3621C34.7979 22.2659 34.7769 22.1625 34.7769 22.058C34.7769 21.9536 34.7979 21.8502 34.8386 21.754C34.8794 21.6578 34.939 21.5707 35.014 21.498L39.128 17.384C39.2006 17.3085 39.2875 17.2481 39.3836 17.2064C39.4798 17.1647 39.5832 17.1425 39.688 17.141C39.908 17.141 40.102 17.214 40.248 17.384L44.313 21.45C44.388 21.5227 44.4476 21.6098 44.4883 21.706C44.529 21.8022 44.55 21.9056 44.55 22.01C44.55 22.1145 44.529 22.2179 44.4883 22.3141C44.4476 22.4103 44.388 22.4973 44.313 22.57V22.57Z" fill="#53C174"/>
<path d="M56.9229 52.44L52.9069 3.75303C52.8818 3.44761 52.7427 3.16284 52.5172 2.95532C52.2917 2.74781 51.9964 2.63275 51.6899 2.63303H5.75694C5.45049 2.63275 5.15517 2.74781 4.92968 2.95532C4.70419 3.16284 4.56505 3.44761 4.53994 3.75303L0.669936 52.44C0.658331 52.6075 0.681118 52.7755 0.736895 52.9338C0.792672 53.0921 0.880259 53.2373 0.994263 53.3605C1.10827 53.4837 1.24628 53.5823 1.3998 53.6501C1.55332 53.7179 1.7191 53.7537 1.88693 53.755H55.7299C56.4359 53.755 56.9959 53.146 56.9229 52.44ZM27.7379 38.32C20.7279 38.32 15.0309 31.456 15.0309 23.057C15.0328 22.8445 15.1181 22.6411 15.2685 22.4909C15.4189 22.3407 15.6224 22.2556 15.8349 22.254C16.0473 22.2559 16.2505 22.341 16.4007 22.4912C16.5509 22.6414 16.6361 22.8446 16.6379 23.057C16.6379 30.604 21.6279 36.738 27.7619 36.738C33.8959 36.738 38.8859 30.604 38.8859 23.058C38.8875 22.8454 38.9726 22.642 39.1228 22.4916C39.273 22.3412 39.4764 22.2559 39.6889 22.254C39.9015 22.2556 40.105 22.3407 40.2554 22.4909C40.4058 22.6411 40.4911 22.8445 40.4929 23.057C40.4439 31.456 34.7479 38.32 27.7379 38.32ZM44.3139 22.57C44.2413 22.6451 44.1543 22.7049 44.0581 22.7457C43.9619 22.7865 43.8584 22.8075 43.7539 22.8075C43.6494 22.8075 43.546 22.7865 43.4498 22.7457C43.3536 22.7049 43.2666 22.6451 43.1939 22.57L39.6889 19.065L36.1359 22.619C35.9864 22.7675 35.7865 22.8542 35.5759 22.862C35.4707 22.8637 35.3663 22.8429 35.2697 22.801C35.1731 22.7591 35.0866 22.697 35.0159 22.619C34.9409 22.5463 34.8813 22.4593 34.8406 22.3631C34.7999 22.2669 34.7789 22.1635 34.7789 22.059C34.7789 21.9546 34.7999 21.8512 34.8406 21.755C34.8813 21.6588 34.9409 21.5717 35.0159 21.499L39.1299 17.385C39.2026 17.3095 39.2895 17.2491 39.3856 17.2074C39.4817 17.1657 39.5852 17.1435 39.6899 17.142C39.9079 17.142 40.1029 17.215 40.2499 17.385L44.3139 21.45C44.3889 21.5227 44.4486 21.6098 44.4893 21.706C44.53 21.8022 44.551 21.9056 44.551 22.01C44.551 22.1145 44.53 22.2179 44.4893 22.3141C44.4486 22.4103 44.3889 22.4973 44.3139 22.57Z" fill="#61D67F"/>
</svg>
